<svg xmlns="http://www.w3.org/2000/svg" version="1.1" xmlns:xlink="http://www.w3.org/1999/xlink" xmlns:svgjs="http://svgjs.dev/svgjs" width="1000" height="1000" viewBox="0 0 1000 1000"><rect width="1000" height="1000" fill="#ffffff"></rect><g transform="matrix(0.7,0,0,0.7,149.57575757575756,282.1265587044535)"><svg viewBox="0 0 396 247" data-background-color="#ffffff" preserveAspectRatio="xMidYMid meet" height="623" width="1000" xmlns="http://www.w3.org/2000/svg" xmlns:xlink="http://www.w3.org/1999/xlink"><g id="tight-bounds" transform="matrix(1,0,0,1,0.2400000000000091,-0.09999999999999432)"><svg viewBox="0 0 395.52 247.2" height="247.2" width="395.52"><g><svg></svg></g><g><svg viewBox="0 0 395.52 247.2" height="247.2" width="395.52"><mask id="e65a77bf-b0ed-498f-a34d-04bc47de901a"><rect width="640" height="400" fill="white"></rect><rect width="174.02880000000002" height="38.67446517608856" fill="black" y="104.2627674119557" x="110.74559999999998" id="transform-me"></rect></mask><g transform="matrix(1,0,0,1,118.65599999999999,110.46464944649446)"><svg viewBox="0 0 158.208 26.27070110701107" height="26.27070110701107" width="158.208"><g><svg viewBox="0 0 158.208 26.27070110701107" height="26.27070110701107" width="158.208"><g><svg viewBox="0 0 158.208 26.27070110701107" height="26.27070110701107" width="158.208"><g id="textblocktransform"><svg viewBox="0 0 158.208 26.27070110701107" height="26.27070110701107" width="158.208" id="textblock"><g><svg viewBox="0 0 158.208 26.27070110701107" height="26.27070110701107" width="158.208"><g transform="matrix(1,0,0,1,0,0)"><svg width="158.208" viewBox="3 -35.25 216.78 36" height="26.27070110701107" data-palette-color="#c53683"><path d="M10.9-34.55Q17.15-34.55 20.43-31.78 23.7-29 23.7-23.6L23.7-23.6Q23.7-17.85 20.48-15 17.25-12.15 11.35-12.15L11.35-12.15 9.35-12.15 9.35 0 3 0 3-34.55 10.9-34.55ZM11-16.9Q14.25-16.9 15.7-18.4 17.15-19.9 17.15-23.55L17.15-23.55Q17.15-26.85 15.7-28.35 14.25-29.85 11.05-29.85L11.05-29.85 9.35-29.85 9.35-16.9 11-16.9ZM27.45-34.55L33.8-34.55 33.8 0 27.45 0 27.45-34.55ZM51.3-35.25Q53.95-35.25 55.97-34.38 58-33.5 59.9-31.7L59.9-31.7 56.84-28.05Q55.55-29.25 54.32-29.83 53.09-30.4 51.65-30.4L51.65-30.4Q48.65-30.4 46.95-27.4 45.25-24.4 45.25-17.35L45.25-17.35Q45.25-10.4 46.95-7.38 48.65-4.35 51.75-4.35L51.75-4.35Q53.3-4.35 54.45-4.98 55.59-5.6 57.15-6.9L57.15-6.9 60.2-3.4Q58.59-1.6 56.34-0.43 54.09 0.75 51.3 0.75L51.3 0.75Q45.45 0.75 42-3.8 38.55-8.35 38.55-17.35L38.55-17.35Q38.55-23.3 40.2-27.3 41.84-31.3 44.72-33.27 47.59-35.25 51.3-35.25L51.3-35.25ZM71.49-34.55Q77.74-34.55 81.02-31.78 84.29-29 84.29-23.6L84.29-23.6Q84.29-17.85 81.07-15 77.84-12.15 71.94-12.15L71.94-12.15 69.94-12.15 69.94 0 63.59 0 63.59-34.55 71.49-34.55ZM71.59-16.9Q74.84-16.9 76.29-18.4 77.74-19.9 77.74-23.55L77.74-23.55Q77.74-26.85 76.29-28.35 74.84-29.85 71.64-29.85L71.64-29.85 69.94-29.85 69.94-16.9 71.59-16.9ZM88.04-34.55L105.19-34.55 104.54-29.8 94.39-29.8 94.39-19.9 103.24-19.9 103.24-15.2 94.39-15.2 94.39-4.8 105.19-4.8 105.19 0 88.04 0 88.04-34.55ZM132.04 0L125.19 0 119.09-13.95 118.49-13.95 116.04-13.95 116.04 0 109.69 0 109.69-34.55 117.84-34.55Q130.34-34.55 130.34-24.4L130.34-24.4Q130.34-21.25 128.94-18.82 127.54-16.4 124.74-15.15L124.74-15.15 132.04 0ZM118.14-18.55Q121.09-18.55 122.41-19.95 123.74-21.35 123.74-24.4L123.74-24.4Q123.74-27.25 122.36-28.58 120.99-29.9 117.84-29.9L117.84-29.9 116.04-29.9 116.04-18.55 118.14-18.55ZM141.59 0L135.24 0 135.24-34.55 151.94-34.55 151.24-29.8 141.59-29.8 141.59-19.25 149.99-19.25 149.99-14.5 141.59-14.5 141.59 0ZM155.38-34.55L172.53-34.55 171.88-29.8 161.73-29.8 161.73-19.9 170.58-19.9 170.58-15.2 161.73-15.2 161.73-4.8 172.53-4.8 172.53 0 155.38 0 155.38-34.55ZM188.53-35.25Q191.18-35.25 193.21-34.38 195.23-33.5 197.13-31.7L197.13-31.7 194.08-28.05Q192.78-29.25 191.56-29.83 190.33-30.4 188.88-30.4L188.88-30.4Q185.88-30.4 184.18-27.4 182.48-24.4 182.48-17.35L182.48-17.35Q182.48-10.4 184.18-7.38 185.88-4.35 188.98-4.35L188.98-4.35Q190.53-4.35 191.68-4.98 192.83-5.6 194.38-6.9L194.38-6.9 197.43-3.4Q195.83-1.6 193.58-0.43 191.33 0.75 188.53 0.75L188.53 0.75Q182.68 0.75 179.23-3.8 175.78-8.35 175.78-17.35L175.78-17.35Q175.78-23.3 177.43-27.3 179.08-31.3 181.96-33.27 184.83-35.25 188.53-35.25L188.53-35.25ZM198.23-34.55L219.78-34.55 219.08-29.55 211.98-29.55 211.98 0 205.63 0 205.63-29.55 198.23-29.55 198.23-34.55Z" opacity="1" transform="matrix(1,0,0,1,0,0)" fill="#000000" class="wordmark-text-0" data-fill-palette-color="primary" id="text-0"></path></svg></g></svg></g></svg></g></svg></g><g></g></svg></g></svg></g><g mask="url(#e65a77bf-b0ed-498f-a34d-04bc47de901a)"><g transform="matrix(3.7321156773211563, 0, 0, 3.7321156773211563, 41.19774733637746, 1)"><svg xmlns="http://www.w3.org/2000/svg" xmlns:xlink="http://www.w3.org/1999/xlink" version="1.1" x="0" y="0" viewBox="8.1 14 83.9 65.7" style="enable-background:new 0 0 100 100;" xml:space="preserve" height="65.7" width="83.9" class="icon-none" data-fill-palette-color="accent" id="none"><g fill="#dd3791" data-fill-palette-color="accent"><g fill="#dd3791" data-fill-palette-color="accent"><path d="M83.5 19H79l-4.5-5H56.6l-4.5 5H16.5c-4.6 0-8.4 3.8-8.4 8.4v43.9c0 4.6 3.8 8.4 8.4 8.4h67.1c4.6 0 8.4-3.8 8.4-8.4V27.4C91.9 22.8 88.2 19 83.5 19zM88.9 71.3c0 3-2.4 5.4-5.4 5.4H16.5c-3 0-5.4-2.4-5.4-5.4V27.4c0-3 2.4-5.4 5.4-5.4h37l4.5-5h15.2l4.5 5h5.8c3 0 5.4 2.4 5.4 5.4V71.3z" fill="#000000" data-fill-palette-color="accent"></path><path d="M50 32.7c-9.6 0-17.3 7.8-17.3 17.3S40.4 67.3 50 67.3 67.3 59.6 67.3 50 59.6 32.7 50 32.7zM50 64.3c-7.9 0-14.3-6.4-14.3-14.3S42.1 35.7 50 35.7 64.3 42.1 64.3 50 57.9 64.3 50 64.3z" fill="#000000" data-fill-palette-color="accent"></path><circle cx="25.4" cy="35" r="3.7" fill="#000000" data-fill-palette-color="accent"></circle></g></g></svg></g></g></svg></g><defs></defs></svg><rect width="395.52" height="247.2" fill="none" stroke="none" visibility="hidden"></rect></g></svg></g></svg>